<?xml version="1.0" encoding="UTF-8" standalone="no"?>
<svg
   xmlns:dc="http://purl.org/dc/elements/1.1/"
   xmlns:cc="http://creativecommons.org/ns#"
   xmlns:rdf="http://www.w3.org/1999/02/22-rdf-syntax-ns#"
   xmlns:svg="http://www.w3.org/2000/svg"
   xmlns="http://www.w3.org/2000/svg"
   id="svg8"
   version="1.1"
   viewBox="0 0 26.458333 31.750001"
   height="120"
   width="100">
  <defs
     id="defs2" />
  <metadata
     id="metadata5">
    <rdf:RDF>
      <cc:Work
         rdf:about="">
        <dc:format>image/svg+xml</dc:format>
        <dc:type
           rdf:resource="http://purl.org/dc/dcmitype/StillImage" />
        <dc:title></dc:title>
      </cc:Work>
    </rdf:RDF>
  </metadata>
  <g
     transform="translate(0,-265.24998)"
     id="layer1">
    <g
       id="g879">
      <circle
         style="opacity:1;fill:#009eff;fill-opacity:1;stroke:none;stroke-width:0.12799999;stroke-miterlimit:4;stroke-dasharray:none;stroke-opacity:0.01214576"
         id="path815"
         cx="13.229167"
         cy="281.12497"
         r="13.229167" />
      <g
         id="g869">
        <path
           id="path851"
           d="m 4.610828,271.15508 4.0850319,-0.40446 c 0,0 3.7210191,0.9707 3.8828021,0.9707 0.161784,0 3.03344,0.16178 3.03344,0.16178 l 1.294267,-1.61783 0.728026,-1.09204 -0.323567,-0.68758 c 0,0 -6.228663,-2.38631 -12.7,2.66943 z"
           style="fill:#008000;stroke:#000000;stroke-width:0.26458332px;stroke-linecap:butt;stroke-linejoin:miter;stroke-opacity:1" />
        <path
           id="path853"
           d="m 16.380573,280.09361 c -0.202229,0 -2.467197,0.24268 -2.709872,0.4449 -0.242676,0.20223 -1.213376,1.4965 -1.213376,1.4965 l -1.698727,1.05159 c 0,0 -2.1840759,0.84937 -2.3458593,0.9707 -0.1617835,0.12134 -1.2942673,2.14364 -1.2942673,2.14364 l 0.8898088,1.65828 4.5703818,0.0809 c 0,0 4.853503,-0.32357 5.17707,-0.44491 0.323567,-0.12134 1.900956,-1.13248 1.900956,-1.13248 l -0.283121,-2.30542 c 0,0 -1.092039,-2.66942 -1.051593,-2.83121 0.04045,-0.16178 -0.08089,-0.8898 -0.08089,-0.8898 z"
           style="fill:#008000;stroke:#000000;stroke-width:0.26458332px;stroke-linecap:butt;stroke-linejoin:miter;stroke-opacity:1" />
        <path
           id="path855"
           d="m 21.759872,291.01399 c 0,0 -1.092038,-1.17293 -1.213375,-1.33471 -0.121338,-0.16178 1.011146,-2.66943 1.011146,-2.66943 l -3.073885,0.56624 2.305414,-1.21337 0.404458,-1.61784 -0.161783,-1.25382 -0.768472,0.56624 -0.08089,-0.36401 0.687579,-0.60669 -0.121337,-1.33471 -0.323567,-1.57739 -1.65828,-0.52579 -0.808918,-1.09204 1.941402,-1.61784 1.981847,0.68758 0.242675,1.57739 3.03344,0.56624 0.404458,1.90096 0.889809,0.72802 c 0,0 -0.364013,4.9344 -4.691721,8.61497 z"
           style="fill:#008000;stroke:#000000;stroke-width:0.26458332px;stroke-linecap:butt;stroke-linejoin:miter;stroke-opacity:1" />
        <path
           id="path857"
           d="m 21.031847,274.14807 c 0,0 -0.647134,1.57739 -0.04045,1.73917 0.606688,0.16178 2.103185,0.28312 2.103185,0.28312 l 1.496496,-1.29427 -1.132484,-2.02229 -1.496496,0.16178 z"
           style="fill:#008000;stroke:#000000;stroke-width:0.26458332px;stroke-linecap:butt;stroke-linejoin:miter;stroke-opacity:1" />
        <path
           id="path859"
           d="m 8.2105094,293.31941 1.9414016,-0.72803 2.912102,0.0404 0.728025,1.57739 c 0,0 -2.871656,0.4449 -5.5815286,-0.88981 z"
           style="fill:#008000;stroke:#000000;stroke-width:0.26458332px;stroke-linecap:butt;stroke-linejoin:miter;stroke-opacity:1" />
        <path
           id="path861"
           d="m 0.32356687,278.03087 1.49649683,2.42675 0.283121,2.83121 0.9707005,1.82007 -0.242675,1.9414 0.5662419,0.9707 -0.3235669,1.53694 c 0,0 -4.2063693,-3.84236 -2.75031833,-11.52707 z"
           style="fill:#f9f9f9;stroke:#000000;stroke-width:0.26458332px;stroke-linecap:butt;stroke-linejoin:miter;stroke-opacity:1" />
      </g>
    </g>
    <circle
       r="0.79374999"
       cy="266.03867"
       cx="13.052217"
       id="path881"
       style="opacity:1;fill:#000000;fill-opacity:1;stroke:none;stroke-width:0.25599998;stroke-miterlimit:4;stroke-dasharray:none;stroke-opacity:0.01214576" />
    <path
       id="path883"
       d="m 12.902229,266.74648 0.04045,1.82006 -1.334713,1.4965"
       style="fill:none;stroke:#000000;stroke-width:0.26458332px;stroke-linecap:butt;stroke-linejoin:miter;stroke-opacity:1" />
    <path
       id="path885"
       d="m 12.942679,268.56654 1.051588,1.25382"
       style="fill:none;stroke:#000000;stroke-width:0.26458332px;stroke-linecap:butt;stroke-linejoin:miter;stroke-opacity:1" />
    <path
       id="path887"
       d="m 11.203503,267.51495 c 0.323567,-0.12134 1.698726,-0.76847 1.698726,-0.76847 l 1.456051,0.80891"
       style="fill:none;stroke:#000000;stroke-width:0.26458332px;stroke-linecap:butt;stroke-linejoin:miter;stroke-opacity:1" />
  </g>
</svg>
